<svg xmlns="http://www.w3.org/2000/svg" viewBox="0 0 900 700" font-family="'Inter', system-ui, sans-serif">
  <defs>
    <linearGradient id="bg" x1="0" y1="0" x2="0" y2="1">
      <stop offset="0%" stop-color="#0f172a"/>
      <stop offset="100%" stop-color="#020617"/>
    </linearGradient>
    <linearGradient id="accent" x1="0" y1="0" x2="1" y2="1">
      <stop offset="0%" stop-color="#0ea5e9"/>
      <stop offset="100%" stop-color="#38bdf8"/>
    </linearGradient>
    <linearGradient id="accent2" x1="0" y1="0" x2="1" y2="1">
      <stop offset="0%" stop-color="#14b8a6"/>
      <stop offset="100%" stop-color="#2dd4bf"/>
    </linearGradient>
    <linearGradient id="accent3" x1="0" y1="0" x2="1" y2="1">
      <stop offset="0%" stop-color="#a855f7"/>
      <stop offset="100%" stop-color="#c084fc"/>
    </linearGradient>
    <filter id="glow">
      <feDropShadow dx="0" dy="0" stdDeviation="3" flood-color="#0ea5e9" flood-opacity="0.3"/>
    </filter>
    <marker id="arrow" viewBox="0 0 10 10" refX="10" refY="5" markerWidth="8" markerHeight="8" orient="auto">
      <path d="M0,0 L10,5 L0,10 Z" fill="#0ea5e9"/>
    </marker>
    <marker id="arrow2" viewBox="0 0 10 10" refX="10" refY="5" markerWidth="8" markerHeight="8" orient="auto">
      <path d="M0,0 L10,5 L0,10 Z" fill="#64748b"/>
    </marker>
  </defs>

  <rect width="900" height="700" fill="url(#bg)" rx="12"/>

  <!-- Title -->
  <text x="450" y="36" text-anchor="middle" fill="#e2e8f0" font-size="18" font-weight="700">Morn Architecture</text>
  <text x="450" y="54" text-anchor="middle" fill="#64748b" font-size="12">Desktop AI OS — 5-Layer Architecture</text>

  <!-- ==================== Layer 5: Bootstrap ==================== -->
  <rect x="50" y="75" width="800" height="52" rx="8" fill="#0c1929" stroke="#0ea5e9" stroke-width="1" stroke-dasharray="4,2" opacity="0.8"/>
  <text x="70" y="94" fill="#38bdf8" font-size="11" font-weight="600" letter-spacing="2">LAYER 5 — BOOTSTRAP</text>
  <rect x="70" y="103" width="100" height="20" rx="4" fill="#0ea5e9" opacity="0.15"/>
  <text x="78" y="117" fill="#38bdf8" font-size="11">Tauri Entry</text>
  <rect x="190" y="103" width="100" height="20" rx="4" fill="#0ea5e9" opacity="0.15"/>
  <text x="198" y="117" fill="#38bdf8" font-size="11">main.rs</text>
  <rect x="310" y="103" width="110" height="20" rx="4" fill="#0ea5e9" opacity="0.15"/>
  <text x="318" y="117" fill="#38bdf8" font-size="11">PluginLoader</text>
  <rect x="440" y="103" width="120" height="20" rx="4" fill="#0ea5e9" opacity="0.15"/>
  <text x="448" y="117" fill="#38bdf8" font-size="11">Vite Dev Server</text>
  <rect x="580" y="103" width="100" height="20" rx="4" fill="#0ea5e9" opacity="0.15"/>
  <text x="588" y="117" fill="#38bdf8" font-size="11">NSIS/MSI</text>

  <!-- Arrow L5 -> L4 -->
  <line x1="450" y1="127" x2="450" y2="148" stroke="#0ea5e9" stroke-width="1.5" marker-end="url(#arrow)"/>

  <!-- ==================== Layer 4: Kernel Core ==================== -->
  <rect x="50" y="152" width="800" height="62" rx="8" fill="#0c1929" stroke="#0ea5e9" stroke-width="1" opacity="0.7"/>
  <text x="70" y="171" fill="#38bdf8" font-size="11" font-weight="600" letter-spacing="2">LAYER 4 — KERNEL CORE</text>
  <rect x="70" y="181" width="135" height="25" rx="4" fill="#0ea5e9" opacity="0.1"/>
  <text x="78" y="197" fill="#0ea5e9" font-size="11">Supervisor</text>
  <rect x="220" y="181" width="135" height="25" rx="4" fill="#0ea5e9" opacity="0.1"/>
  <text x="228" y="197" fill="#0ea5e9" font-size="11">PluginManager</text>
  <rect x="370" y="181" width="135" height="25" rx="4" fill="#0ea5e9" opacity="0.1"/>
  <text x="378" y="197" fill="#0ea5e9" font-size="11">DataLayer</text>
  <rect x="520" y="181" width="135" height="25" rx="4" fill="#0ea5e9" opacity="0.1"/>
  <text x="528" y="197" fill="#0ea5e9" font-size="11">EventBus</text>
  <rect x="670" y="181" width="155" height="25" rx="4" fill="#0ea5e9" opacity="0.1"/>
  <text x="678" y="197" fill="#0ea5e9" font-size="11">DAG Engine</text>

  <!-- Arrow L4 -> L3 -->
  <line x1="450" y1="214" x2="450" y2="235" stroke="#0ea5e9" stroke-width="1.5" marker-end="url(#arrow)"/>

  <!-- ==================== Layer 3: System Plugins ==================== -->
  <rect x="50" y="239" width="800" height="82" rx="8" fill="#0c1929" stroke="#38bdf8" stroke-width="1" opacity="0.7"/>
  <text x="70" y="258" fill="#38bdf8" font-size="11" font-weight="600" letter-spacing="2">LAYER 3 — SYSTEM COMPONENTS (27 morn:* plugins)</text>

  <rect x="70" y="270" width="115" height="22" rx="4" fill="#14b8a6" opacity="0.12"/>
  <text x="76" y="285" fill="#2dd4bf" font-size="10">morn:agent</text>
  <rect x="195" y="270" width="115" height="22" rx="4" fill="#14b8a6" opacity="0.12"/>
  <text x="201" y="285" fill="#2dd4bf" font-size="10">morn:chat</text>
  <rect x="320" y="270" width="115" height="22" rx="4" fill="#14b8a6" opacity="0.12"/>
  <text x="326" y="285" fill="#2dd4bf" font-size="10">morn:memory</text>
  <rect x="445" y="270" width="115" height="22" rx="4" fill="#14b8a6" opacity="0.12"/>
  <text x="451" y="285" fill="#2dd4bf" font-size="10">morn:studio</text>
  <rect x="570" y="270" width="115" height="22" rx="4" fill="#14b8a6" opacity="0.12"/>
  <text x="576" y="285" fill="#2dd4bf" font-size="10">morn:store</text>
  <rect x="695" y="270" width="130" height="22" rx="4" fill="#14b8a6" opacity="0.12"/>
  <text x="701" y="285" fill="#2dd4bf" font-size="10">morn:console</text>

  <rect x="70" y="296" width="115" height="20" rx="4" fill="#14b8a6" opacity="0.12"/>
  <text x="76" y="310" fill="#2dd4bf" font-size="10">morn:security</text>
  <rect x="195" y="296" width="115" height="20" rx="4" fill="#14b8a6" opacity="0.12"/>
  <text x="201" y="310" fill="#2dd4bf" font-size="10">morn:tool</text>
  <rect x="320" y="296" width="115" height="20" rx="4" fill="#14b8a6" opacity="0.12"/>
  <text x="326" y="310" fill="#2dd4bf" font-size="10">morn:knowledge</text>
  <rect x="445" y="296" width="115" height="20" rx="4" fill="#14b8a6" opacity="0.12"/>
  <text x="451" y="310" fill="#2dd4bf" font-size="10">morn:model</text>
  <rect x="570" y="296" width="115" height="20" rx="4" fill="#14b8a6" opacity="0.12"/>
  <text x="576" y="310" fill="#2dd4bf" font-size="10">morn:workflow</text>
  <rect x="695" y="296" width="130" height="20" rx="4" fill="#14b8a6" opacity="0.12"/>
  <text x="701" y="310" fill="#2dd4bf" font-size="10">+21 more morn:*</text>

  <!-- Arrow L3 -> L2 -->
  <line x1="450" y1="321" x2="450" y2="342" stroke="#0ea5e9" stroke-width="1.5" marker-end="url(#arrow)"/>

  <!-- ==================== Layer 2: User Plugins ==================== -->
  <rect x="50" y="346" width="800" height="62" rx="8" fill="#0c1929" stroke="#a855f7" stroke-width="1" opacity="0.7"/>
  <text x="70" y="365" fill="#c084fc" font-size="11" font-weight="600" letter-spacing="2">LAYER 2 — USER PLUGINS</text>

  <rect x="70" y="375" width="160" height="25" rx="4" fill="#a855f7" opacity="0.1"/>
  <text x="78" y="391" fill="#c084fc" font-size="11">Python BridgePlugin</text>
  <rect x="250" y="375" width="160" height="25" rx="4" fill="#a855f7" opacity="0.1"/>
  <text x="258" y="391" fill="#c084fc" font-size="11">JS BridgePlugin</text>
  <rect x="430" y="375" width="160" height="25" rx="4" fill="#a855f7" opacity="0.1"/>
  <text x="438" y="391" fill="#c084fc" font-size="11">Community Plugins</text>
  <rect x="610" y="375" width="215" height="25" rx="4" fill="#a855f7" opacity="0.1"/>
  <text x="618" y="391" fill="#c084fc" font-size="11">manifest.json + WASM</text>

  <!-- Arrow L2 -> L1 -->
  <line x1="450" y1="408" x2="450" y2="429" stroke="#0ea5e9" stroke-width="1.5" marker-end="url(#arrow)"/>

  <!-- ==================== Layer 1: Atomic Components ==================== -->
  <rect x="50" y="433" width="800" height="82" rx="8" fill="#0c1929" stroke="#2dd4bf" stroke-width="1" opacity="0.7"/>
  <text x="70" y="452" fill="#2dd4bf" font-size="11" font-weight="600" letter-spacing="2">LAYER 1 — ATOMIC COMPONENTS</text>

  <rect x="70" y="464" width="115" height="22" rx="4" fill="#14b8a6" opacity="0.1"/>
  <text x="78" y="479" fill="#5eead4" font-size="10">Tool</text>

  <rect x="197" y="464" width="115" height="22" rx="4" fill="#14b8a6" opacity="0.1"/>
  <text x="205" y="479" fill="#5eead4" font-size="10">Knowledge</text>

  <rect x="324" y="464" width="115" height="22" rx="4" fill="#14b8a6" opacity="0.1"/>
  <text x="332" y="479" fill="#5eead4" font-size="10">Skill</text>

  <rect x="451" y="464" width="115" height="22" rx="4" fill="#14b8a6" opacity="0.1"/>
  <text x="459" y="479" fill="#5eead4" font-size="10">Persona</text>

  <rect x="578" y="464" width="115" height="22" rx="4" fill="#14b8a6" opacity="0.1"/>
  <text x="586" y="479" fill="#5eead4" font-size="10">Memory</text>

  <rect x="705" y="464" width="120" height="22" rx="4" fill="#14b8a6" opacity="0.1"/>
  <text x="713" y="479" fill="#5eead4" font-size="10">Model</text>

  <!-- Assembly arrows: components -> Agent -->
  <line x1="140" y1="486" x2="140" y2="505" stroke="#64748b" stroke-width="1" marker-end="url(#arrow2)"/>
  <line x1="450" y1="486" x2="450" y2="505" stroke="#64748b" stroke-width="1" marker-end="url(#arrow2)"/>

  <!-- Agent assembly -->
  <rect x="115" y="498" width="250" height="28" rx="6" fill="#0ea5e9" opacity="0.15" stroke="#0ea5e9" stroke-width="1" filter="url(#glow)"/>
  <text x="145" y="517" fill="#38bdf8" font-size="12" font-weight="600">Agent  (component assembly)</text>

  <!-- Multi-Agent Team -->
  <rect x="440" y="498" width="385" height="28" rx="6" fill="#0ea5e9" opacity="0.15" stroke="#0ea5e9" stroke-width="1" filter="url(#glow)"/>
  <text x="475" y="517" fill="#38bdf8" font-size="12" font-weight="600">Multi-Agent Team  (7 collaboration modes)</text>

  <!-- Line from Agent to Multi-Agent -->
  <line x1="365" y1="512" x2="440" y2="512" stroke="#64748b" stroke-width="1" marker-end="url(#arrow2)"/>

  <!-- Workflow assembly -->
  <rect x="280" y="535" width="340" height="28" rx="6" fill="#0ea5e9" opacity="0.2" stroke="#38bdf8" stroke-width="1.5" filter="url(#glow)"/>
  <text x="330" y="554" fill="#7dd3fc" font-size="12" font-weight="700">Workflow  (NL → DAG orchestration)</text>

  <line x1="240" y1="526" x2="280" y2="549" stroke="#64748b" stroke-width="1" marker-end="url(#arrow2)"/>
  <line x1="635" y1="526" x2="620" y2="549" stroke="#64748b" stroke-width="1" marker-end="url(#arrow2)"/>

  <!-- ==================== UI Layer (web) ==================== -->
  <rect x="50" y="580" width="800" height="48" rx="8" fill="#0c1929" stroke="#0ea5e9" stroke-width="1" stroke-dasharray="6,3" opacity="0.6"/>
  <text x="70" y="599" fill="#64748b" font-size="10" font-weight="600" letter-spacing="2">UI LAYER — React 18 + TypeScript + Vite 5</text>
  <rect x="70" y="607" width="120" height="16" rx="3" fill="#1e293b"/>
  <text x="76" y="619" fill="#94a3b8" font-size="9">Workbench</text>
  <rect x="200" y="607" width="120" height="16" rx="3" fill="#1e293b"/>
  <text x="206" y="619" fill="#94a3b8" font-size="9">Studio</text>
  <rect x="330" y="607" width="120" height="16" rx="3" fill="#1e293b"/>
  <text x="336" y="619" fill="#94a3b8" font-size="9">Store</text>
  <rect x="460" y="607" width="120" height="16" rx="3" fill="#1e293b"/>
  <text x="466" y="619" fill="#94a3b8" font-size="9">Console</text>
  <rect x="590" y="607" width="120" height="16" rx="3" fill="#1e293b"/>
  <text x="596" y="619" fill="#94a3b8" font-size="9">Settings</text>

  <!-- Dashed line separating UI layer from layers above -->
  <line x1="60" y1="574" x2="840" y2="574" stroke="#0ea5e9" stroke-width="1" stroke-dasharray="4,4" opacity="0.3"/>

  <!-- ==================== Notes ==================== -->
  <text x="70" y="665" fill="#475569" font-size="9">27 morn:* plugins: agent, chat, memory, studio, store, console, security, tool, knowledge, model, workflow, hub, logger, config,</text>
  <text x="70" y="678" fill="#475569" font-size="9">notification, scheduler, template, auth, analytics, cache, export, import, search, sync, transform, validator, webhook, cron</text>
</svg>